<?xml version="1.0" encoding="UTF-8"?>
<svg id="Camada_2" data-name="Camada 2" xmlns="http://www.w3.org/2000/svg" xmlns:xlink="http://www.w3.org/1999/xlink" viewBox="0 0 803 200">
  <defs>
    <style>
      .cls-1 {
        fill: none;
      }

      .cls-1, .cls-2, .cls-3 {
        stroke-width: 0px;
      }

      .cls-2 {
        fill: #dd94d0;
      }

      .cls-3 {
        fill: #3c3cd6;
      }

      .cls-4 {
        clip-path: url(#clippath);
      }
    </style>
    <clipPath id="clippath">
      <rect class="cls-1" width="803" height="200"/>
    </clipPath>
  </defs>
  <g id="Camada_1-2" data-name="Camada 1">
    <g class="cls-4">
      <rect class="cls-3" x="-112" y="-27" width="1024" height="256"/>
      <path class="cls-2" d="M597.47-184c-11.85,30.29-6.19,64.48,8.72,92.63,7.19,13.58,16.58,26.01,26.91,37.35,10.3,11.3,22.1,20.93,32.9,31.71,11.21,11.19,19.34,24.18,21.07,40.23,1.57,14.56-.85,31.51-12.15,41.89-9.21,8.46-24.91,10.67-32.97-.65-6.14-8.62.99-24.69,12.72-20.12,10.98,4.29,14.2,19.95,15.71,30.12,2.32,15.51,1.7,31.42.73,47.01-1.92,30.84-6.28,62.91,3.07,93.02,4.28,13.8,11.3,27.75,22.61,37.11,11.63,9.62,26.3,13.22,41.18,12.99,14.97-.24,30.93-3.07,45.26-7.4,13.73-4.15,28.2-15.03,26.36-31.11-1.53-13.37-17.25-23.27-29.13-14.96-11.19,7.82-9.45,23.59-9.76,35.47-.86,32.15-8.7,64.23-22.83,93.13-3.48,7.12-7.34,14.03-11.51,20.77-4.76,7.68,7.35,14.72,12.09,7.07,16.98-27.44,28.53-58.28,33.42-90.2,1.25-8.16,2.16-16.37,2.6-24.61.38-7.17-.28-14.55.62-21.68.4-3.16,1.49-9.91,6.04-8.96,6.31,1.32,4.93,9.32,2.24,13.05-4.34,6.03-11.98,8.21-18.85,9.86-7.52,1.81-15.18,3.39-22.84,4.47-14.09,1.99-29.56,2.18-41.98-5.7s-18.9-22.04-22.7-35.4c-4.2-14.79-4.85-30.2-4.41-45.49.9-31.58,6.31-63.2.91-94.67-2.17-12.64-7.22-26.02-18-33.77-11.35-8.16-26.38-5.2-34.58,5.82-8.3,11.15-6.78,26.16,2.8,36.01s25.05,12.51,37.95,7.19c30.2-12.47,35.45-52.76,24.93-80.17-5.61-14.61-15.87-25.99-27.23-36.46s-22.56-20.63-32.42-32.43c-20.05-23.98-34.13-54.08-31.57-85.94.65-8.07,2.68-15.94,5.62-23.46,3.28-8.39-10.25-12.03-13.5-3.72h0Z"/>
      <path class="cls-2" d="M-42.93,230.41c31.68,3.76,62.83-9.84,86.1-30.71,11.66-10.45,21.56-22.82,30.13-35.88,8.39-12.8,14.79-26.61,22.43-39.83s17.56-24.33,31.97-30.43c13.74-5.82,31.4-8.23,44.75-.19,10.49,6.32,17.14,19.77,9.76,31-5.28,8.03-20.05,9.42-23.45-1.31-4.12-13.03,14.87-22.82,24.1-26.81,12.94-5.59,26.81-8.95,40.57-11.79,27.73-5.72,56.29-9,82.28-20.93,12.89-5.92,25.42-14.29,34.45-25.35,10.21-12.5,14.69-27.55,12.66-43.62-2.11-16.69-9.55-32.17-17.15-46.98-6.57-12.79-16.87-26.57-32.91-26.12-13.43.38-25.4,14.36-19.21,27.64s22.79,11.06,34.5,7.99c32.78-8.59,67.44-9.89,100.74-3.45,8.4,1.63,16.69,3.75,24.87,6.27,8.63,2.66,12.32-10.85,3.72-13.5-32.73-10.09-67.55-13.2-101.53-8.88-8.5,1.08-16.95,2.54-25.3,4.5-6.22,1.46-13.1,4.31-19.62,3.6-4.53-.49-6.65-3.97-3.36-7.81,4.19-4.88,11.84-1.53,15.8,1.88,5.62,4.84,8.84,12.18,12.09,18.68,3.81,7.6,7.45,15.3,10.11,23.39,5.11,15.56,5.66,31.65-4.44,45.34-16.83,22.81-47.39,31.15-73.71,36.59-28.01,5.78-56.7,9.21-83.03,21.05-12.34,5.55-25.65,14.89-29.25,28.75s4.68,26.18,17.65,30.17,26.3-2.27,32.49-13.96c6.65-12.56,4.6-27.26-4.11-38.24-20.11-25.36-60.28-19.6-83.77-2.44-12.63,9.22-20.92,22.19-28.14,35.81-7.32,13.81-14.59,27.51-23.79,40.19-18.23,25.14-44.04,46.02-75.39,51.09-7.61,1.23-15.39,1.18-23.03.27-3.79-.45-6.96,3.54-7,7-.04,4.15,3.26,6.56,7,7h0Z"/>
      <path class="cls-2" d="M738.74,593.13c-8.1-65.58-49.45-121.4-102.73-158.52-28.72-20-60.81-34.83-93.83-46.2-33.78-11.64-68.98-17.54-103-28.2-16.61-5.21-32.66-12.1-46.88-22.25-13.17-9.4-24.56-21.53-33.65-34.88-18.76-27.53-31.51-63.48-20.87-96.51,8.8-27.34,34.78-49.21,64.64-42.4,12.55,2.86,24.23,10.72,28.86,23.14,4.15,11.14,3.06,24.28-3.47,34.29-7.33,11.22-21.34,14.91-33.95,12.09-15.06-3.37-28.28-12.99-39.03-23.73-20.31-20.31-35.55-46.25-48.98-71.42-27.41-51.4-46.97-106.92-78.15-156.31-31.32-49.61-83.78-104.09-147.76-98.7-33.92,2.86-63.76,21.04-90.08,41.44-13.44,10.41-26.63,21.4-39,33.07-12.1,11.4-23.24,24.96-27.21,41.46-3.59,14.97-1.55,32.77,10.1,43.86,9.51,9.05,24.54,13.16,37.06,8.44,14.6-5.49,20.59-20.62,18.57-35.31C-12.88.12-22.13-14.04-29.67-28.35c-33.56-63.72-52.99-134.93-56.65-206.84-.9-17.71-.84-35.45.12-53.16.49-9-13.51-8.98-14,0-3.91,72.01,7.61,144.87,33.56,212.16,6.59,17.1,14.06,33.88,22.43,50.19C-37.03-12.02-26.97,1.97-24.48,17.82c2.06,13.15-6.31,24.24-20.21,21.49-14.66-2.9-20.65-17.19-19.11-30.97,1.86-16.71,13.35-29.96,25.15-41C-26.27-44.24-13.15-55.31.34-65.59c25.94-19.79,56.35-37.95,90.06-37.22,32.92.71,62.51,20.18,85.49,42.35,20.24,19.53,36.29,42.75,50.08,67.15,28.66,50.7,48.08,106.05,77.5,156.35,14.93,25.53,32.4,52,56.54,69.69,12.04,8.82,26.61,15.68,41.78,15.91s28.53-6.55,37.08-18.47c16.2-22.6,9.3-55.34-12.97-70.9-24.82-17.35-59.44-11.59-80.49,8.78-24.04,23.26-29.6,58.65-22.22,90.19,7.61,32.54,27.27,63.6,53,84.85,27.51,22.72,61.57,32.13,95.62,40.25s68.08,17.41,100.28,31.7c60.13,26.68,115.55,70.58,140.75,133.06,5.82,14.41,10,29.61,11.91,45.05.47,3.78,2.88,6.96,7,7,3.43.04,7.46-3.25,7-7h0Z"/>
      <path class="cls-2" d="M677.91,610.39c52.02-42.08,76.95-109.2,79.28-174.68,1.37-38.56-4.54-77.22-14.25-114.46-9.62-36.86-26.16-72.45-31.51-110.33s5.21-73.24,26.35-103.22c18.53-26.29,48.47-47.1,81.99-42.61,15.26,2.05,29.44,9.96,37.89,22.99,7.57,11.68,11,26.99,5.53,40.26-9.97,24.19-45.63,31.68-60.06,7.71-14.04-23.32-4.93-54.48,4.04-77.83,11-28.63,26.57-55.32,42.97-81.14,32.56-51.27,70.54-100.61,90.27-158.74,10.09-29.73,15.24-62.2,10.32-93.44-5.03-31.94-23.33-57.94-49.57-76.22-24.8-17.28-54.09-27.33-82.72-36.26-29.96-9.35-70.3-19.34-93.04,9.99-8.63,11.13-10.26,25.61-4.48,38.45s18.01,20.1,31.69,18.1c14.53-2.12,24.96-14.25,32.63-25.82,8.85-13.35,15.99-27.8,24.7-41.27,35.87-55.46,83-103.78,137.56-141.01,13.45-9.18,27.34-17.66,41.61-25.5,7.9-4.34.84-16.43-7.07-12.09-58.12,31.94-109.98,75.26-151.7,126.82-10.41,12.87-20.26,26.21-29.41,40.01s-16.6,27.82-25.06,41.68c-6.17,10.11-16.66,25.97-30.64,23.32-11.9-2.26-16.46-18.1-12.35-28.21,5.67-13.93,22.43-20.07,36.37-20.33,18.33-.34,36.36,6.39,53.58,11.95,28.15,9.07,57.47,19.79,80.3,39.22,11.05,9.4,20.25,20.72,26.33,33.95,7.44,16.22,9.62,34.48,9.09,52.16-.91,30.22-9.66,59.88-22.2,87.23-25.65,55.98-65.01,104.14-95.55,157.34-14.71,25.62-29.16,53.57-35.54,82.63-5.48,24.95-5.19,57.2,16.7,74.56,22.42,17.77,55.37,8.41,70.28-14.56,16.5-25.41,4.43-59.9-18.3-76.98-26.55-19.95-64.56-16.15-91.55.73-28.66,17.94-48.6,48.75-58.93,80.45-11.75,36.05-7.3,72.31,3.61,107.94,11.39,37.19,24.49,73.38,31.09,111.88,11.81,68.92,4.59,143.37-37.5,201.29-9.29,12.78-20.36,24.21-32.64,34.14-7.01,5.67,2.95,15.52,9.9,9.9h0Z"/>
      <path class="cls-2" d="M501-49.5c-.94,21.69-2.25,43.38-4.4,64.99-.47,4.77-.99,9.54-1.56,14.3-.28,2.32-.57,4.65-.88,6.97-.03.26-.07.53-.1.79,0,0,.21-1.55.09-.69-.07.52-.14,1.04-.21,1.56-.17,1.2-.34,2.39-.51,3.59-1.17,8.02-2.53,16.02-4.23,23.95-1.44,6.7-3.1,13.36-5.24,19.86-.47,1.43-.96,2.85-1.49,4.26-.23.62-.47,1.24-.71,1.86-.14.35-.28.7-.42,1.05-.06.15-.12.3-.18.44-.36.92.37-.88.39-.92-1.03,2.27-2.04,4.53-3.26,6.7-.56.99-1.14,1.96-1.77,2.9-.27.41-.55.82-.84,1.22-.14.19-.29.38-.43.58-.4.61.93-1.31.81-1.05-.07.15-.25.33-.36.46-.6.71-1.2,1.41-1.85,2.07-.32.32-.65.64-.99.94-.15.14-.31.27-.46.4-1,.88.82-.55.82-.61.01.31-1.81,1.22-2.08,1.36-.32.18-.67.32-.99.5-.8.45,1.99-.74,1.12-.47-.2.06-.39.15-.59.22-.37.12-.74.23-1.11.32-.42.1-1.9.32-.29.11s-.26-.02-.72-.01c-.54,0-1.1-.1-1.64-.08-.45.01,2.19.38.97.13-.26-.05-.52-.09-.78-.15-.62-.13-1.23-.29-1.83-.48-.54-.17-1.06-.37-1.59-.56-1.21-.45,1.15.53.72.31-.31-.16-.63-.29-.94-.44-1.21-.59-2.39-1.26-3.53-1.99-.55-.35-1.1-.72-1.64-1.1-.32-.23-.64-.46-.95-.69-.14-.1-.27-.21-.41-.31-.8-.58.63.47.7.54-2.24-2.13-4.67-4.01-6.82-6.25-1.15-1.2-2.26-2.44-3.34-3.71-.51-.6-1-1.2-1.49-1.81-.25-.31-.48-.62-.73-.92-.51-.62.63.83.57.74-.19-.27-.4-.52-.6-.79-4-5.31-7.49-11.03-10.29-17.06-.34-.73-.65-1.48-.98-2.21-.06-.14.69,1.69.4.95-.06-.17-.14-.34-.21-.51-.16-.39-.31-.78-.46-1.18-.54-1.41-1.03-2.84-1.46-4.29-.4-1.36-.75-2.73-1.03-4.13-.12-.61-.2-1.23-.32-1.83-.1-.5.24,2.13.11.8-.03-.34-.07-.68-.1-1.02-.1-1.2-.12-2.4-.04-3.6.02-.26.05-.52.07-.78.05-1.09-.37,2.04-.13.98.12-.56.21-1.13.36-1.68.05-.17.52-1.25.45-1.34.11.15-.99,2.03-.39.95.13-.23.24-.47.37-.7.2-.35.47-.67.67-1.02.38-.67-1.38,1.59-.81,1.06.12-.12.22-.27.34-.39.47-.48.96-.92,1.45-1.37.56-.51-1.93,1.36-.61.49.33-.22.65-.44.99-.64.63-.38,1.29-.73,1.96-1.04.17-.08.34-.15.51-.23.79-.4-2.11.83-1.01.42.4-.15.79-.31,1.19-.45,1.71-.61,3.47-1.06,5.25-1.43,1-.2,2.01-.36,3.01-.52,1.23-.19-1.53.18-1.02.14.29-.02.58-.07.87-.1.55-.06,1.1-.12,1.65-.17,4.87-.43,9.78-.39,14.66-.08,2.73.17,5.45.44,8.16.78.33.04.66.09.99.13.81.1-1.37-.19-1.16-.16.22.03.45.06.67.09.73.11,1.46.21,2.19.32,1.49.23,2.98.48,4.46.75,6.17,1.13,12.27,2.58,18.3,4.31,6.49,1.87,12.89,4.05,19.17,6.55.81.32,1.62.65,2.43.98.37.15.75.31,1.12.47.75.31-.96-.41-.86-.36.25.11.5.21.75.32,1.62.7,3.23,1.41,4.83,2.15,3.16,1.46,6.29,3,9.37,4.63,6.26,3.31,12.33,6.96,18.14,11,1.46,1.02,2.91,2.06,4.34,3.12.33.25.66.49.98.74.16.12.33.25.49.37.65.48-.78-.61-.71-.55.69.56,1.4,1.1,2.09,1.65,2.75,2.22,5.43,4.54,8.01,6.96s4.92,4.82,7.23,7.37c1.17,1.3,2.31,2.62,3.41,3.97.51.62,1.01,1.25,1.51,1.88.81,1.02-.97-1.29-.19-.25.32.43.64.85.96,1.28,2.02,2.73,3.91,5.57,5.64,8.49.95,1.6,1.85,3.22,2.71,4.87.5.97.99,1.95,1.45,2.94.23.49.46.98.68,1.47.11.24.22.49.33.74.1.22.72,1.65.26.58-.43-.99.22.57.33.82.19.49.38.98.57,1.47.4,1.06.78,2.12,1.14,3.2.71,2.11,1.34,4.24,1.89,6.4s1.01,4.25,1.41,6.41c.18.98.35,1.97.5,2.96.07.49.13.99.21,1.48,0,.03-.2-1.62-.11-.76.04.33.08.66.12.99.96,8.38.89,16.85.14,25.24-.19,2.11-.42,4.21-.68,6.31-.03.24-.06.48-.09.73-.11.86.11-.83.11-.79-.08.48-.13.97-.2,1.45-.16,1.12-.33,2.25-.51,3.37-.65,4.07-1.42,8.12-2.25,12.16-1.64,7.97-3.55,15.89-5.35,23.82-3.33,14.62-6.79,29.85-5.85,44.94.83,13.41,5.43,25.96,14.63,35.91,4.89,5.29,10.98,9.62,17.46,12.76,8.63,4.18,17.86,6.76,27.33,8.13,13.16,1.91,26.4,2.09,39.65,1.18,18.15-1.25,36.21-4.21,53.99-8,10.63-2.26,21.2-4.85,31.7-7.65,3.79-1.01,6.48-5.39,5.24-9.23s-5.16-6.32-9.23-5.24c-20.27,5.41-40.79,10.06-61.57,13.01-.5.07-1.01.14-1.51.21-1.76.24,1.12-.14-.25.03-1.06.14-2.12.27-3.18.4-2.06.25-4.11.48-6.17.69-3.94.4-7.88.72-11.83.95-6.8.39-13.61.51-20.42.22-2.97-.13-5.94-.33-8.9-.63-.7-.07-1.4-.15-2.1-.23-.32-.04-.63-.08-.95-.11-.16-.02-.31-.04-.47-.06-1.01-.12,1.04.14,1.06.14-1.36-.21-2.72-.39-4.08-.62-4.67-.8-9.31-1.89-13.81-3.38-1.01-.33-2.01-.69-3.01-1.06-.48-.18-.96-.37-1.44-.56-.22-.09-.43-.18-.65-.27-.91-.36,2,.87.83.35-1.79-.8-3.56-1.62-5.28-2.56-1.56-.85-3.09-1.77-4.57-2.77-.7-.47-1.39-.97-2.07-1.47-1.37-1,1.56,1.25.39.3-.32-.26-.63-.51-.95-.77-2.37-1.97-4.56-4.17-6.51-6.55-.13-.16-.26-.33-.39-.48-.52-.61.61.81.56.73-.11-.16-.24-.32-.36-.48-.54-.74-1.07-1.48-1.57-2.25-.91-1.39-1.73-2.83-2.48-4.31-.36-.73-.65-1.5-1.04-2.21-.06-.12.68,1.67.39.93-.07-.17-.14-.35-.21-.52-.16-.4-.32-.81-.47-1.22-.55-1.52-1.03-3.07-1.43-4.63s-.73-3.17-.98-4.78c-.03-.19-.06-.37-.09-.56-.19-1.19.11.84.11.87-.03-.38-.09-.76-.14-1.13-.09-.83-.16-1.65-.22-2.48-.25-3.48-.22-6.98-.01-10.46.11-1.78.26-3.55.45-5.32.09-.83.19-1.66.29-2.49.16-1.32-.25,1.77-.01.11.07-.49.14-.98.21-1.48.56-3.75,1.26-7.49,2.02-11.2,3.29-16.14,7.71-32.04,10.2-48.34,2.75-18.02,3.4-36.38-1.26-54.16-4.27-16.29-12.86-31-24.01-43.52-9.79-10.99-21.62-20.22-34.16-27.88-12.52-7.64-26-13.77-39.86-18.56-12.67-4.38-25.7-7.45-39-9.17-10.43-1.35-21.08-1.7-31.46.26-7.74,1.46-16.63,5.11-20.12,12.74-5.6,12.23.18,26.85,6.04,37.88,6.56,12.34,15.86,24.21,27.58,32.01,4.95,3.3,10.95,5.85,17,5.76,5.37-.08,10.01-2.26,14.09-5.61,8.13-6.68,12.4-17.9,15.6-27.56,4.79-14.49,7.47-29.68,9.64-44.75,2.95-20.42,4.84-40.98,6.21-61.56.74-11.05,1.32-22.11,1.79-33.17.17-3.92-3.57-7.68-7.5-7.5-4.21.19-7.32,3.3-7.5,7.5h0Z"/>
      <path class="cls-2" d="M473.96,400.97c-11.42-19.21-22.51-38.64-32.8-58.48-4.42-8.53-8.69-17.15-12.7-25.88-.94-2.05-1.87-4.11-2.78-6.18-.4-.91-.8-1.83-1.2-2.74-.16-.36-.31-.72-.47-1.09-.15-.36-.31-.72-.46-1.08.38.9.4.96.08.19-1.49-3.58-2.93-7.18-4.28-10.81-2.38-6.41-4.54-12.92-6.14-19.57-.68-2.83-1.21-5.68-1.67-8.55-.19-1.18.12.89.12.91,0-.34-.09-.73-.13-1.06-.06-.58-.12-1.15-.17-1.73-.1-1.2-.15-2.4-.16-3.6,0-1.11.03-2.22.12-3.32.07-.86.63-2.25-.08.31.14-.51.17-1.08.27-1.6.17-.83.38-1.66.65-2.47.13-.38.32-.75.42-1.14-.64,2.51-.5,1.12-.06.3.2-.37.41-.73.63-1.08.53-.82,1.44-1.23-.32.35.45-.4,1.53-1.31,1.8-1.81-.57,1.04-1.48,1.05-.82.64.25-.16.49-.34.74-.5.43-.27.88-.49,1.32-.74,1.55-.85-1.73.57-.07.02.62-.21,1.23-.42,1.87-.59s1.21-.29,1.83-.41c.29-.05.58-.09.86-.15,1.4-.25-2.01.16-.57.09s2.75-.2,4.14-.19,2.68.08,4.02.2c.69.06,1.39.18,2.08.23-2.6-.16.29.06.99.18,3.28.57,6.51,1.38,9.69,2.35,1.5.46,2.98.96,4.46,1.49.74.27,1.48.55,2.22.83.44.17.88.35,1.32.53,1.2.49.57.54-.04-.03.53.49,1.72.75,2.38,1.06.79.36,1.57.73,2.34,1.11,1.53.75,3.04,1.55,4.53,2.39,2.71,1.53,5.35,3.2,7.86,5.04.34.25.67.52,1.02.76-1.7-1.17-.78-.62-.37-.27.57.48,1.15.94,1.71,1.43,1.06.93,2.09,1.9,3.06,2.93.42.44.82.89,1.22,1.35.19.22.37.46.56.68.63.7-1.17-1.65-.43-.56.68.99,1.36,1.95,1.92,3.02.14.27.26.55.41.82.58,1.08-.57-1.68-.35-.83.13.51.36,1,.5,1.51.11.4.1,1,.29,1.36-.92-1.73-.14-1.88-.17-1.18-.02.35.04.72.04,1.07,0,.32-.1.68-.06.99-.26-2.13.33-1.83.07-.79-.19.77-.44,1.5-.69,2.26-.18.55,1.04-2.08.15-.43-.21.39-.4.78-.62,1.16-.47.81-1,1.57-1.54,2.35-.93,1.35,1.27-1.53.17-.23-.31.36-.6.73-.92,1.08-.73.83-1.49,1.62-2.28,2.39-.85.83-1.73,1.63-2.63,2.4-.43.37-.87.73-1.31,1.09-.18.15-.36.29-.54.44-1.47,1.2,1.16-.84.12-.09-2.15,1.57-4.31,3.1-6.57,4.51-5.28,3.32-10.85,6.19-16.54,8.74-.79.35-1.58.7-2.38,1.04-.71.31-1.24.1.25-.1-.41.06-.95.4-1.34.55-1.67.68-3.34,1.34-5.03,1.97-3.33,1.25-6.7,2.41-10.09,3.47-7.32,2.3-14.76,4.18-22.29,5.65-1.98.39-3.97.74-5.96,1.07-.91.15-1.82.29-2.73.43-.37.05-.73.11-1.1.16-.37.05-.73.1-1.1.16,1.08-.14,1.19-.16.34-.05-3.88.49-7.77.89-11.67,1.16-8,.54-16.05.56-24.05-.06-2.03-.16-4.07-.36-6.09-.6-.37-.04-.73-.09-1.1-.14-1.91-.23,1.69.26-.2-.03-1.09-.17-2.19-.33-3.28-.51-3.8-.64-7.57-1.45-11.3-2.44s-7.69-2.25-11.42-3.69c-.84-.32-1.72-.61-2.52-1.01,1.89.93-.82-.37-1.2-.54-1.81-.82-3.6-1.7-5.36-2.63-3.47-1.84-6.83-3.9-10.04-6.16-.71-.5-1.41-1.01-2.1-1.53-.1-.08-1.42-1.15-.47-.35s-.35-.29-.45-.37c-1.45-1.17-2.87-2.38-4.24-3.63-2.7-2.46-5.25-5.07-7.66-7.82-1.08-1.23-2.13-2.49-3.14-3.77l-.3-.38c-.49-.63-.4-.51.27.36-.18-.12-.48-.64-.59-.78-.59-.78-1.16-1.57-1.73-2.36-4.03-5.66-7.54-11.68-10.67-17.88-1.6-3.16-3.1-6.37-4.52-9.6-.32-.73-.64-1.47-.96-2.21-.07-.16-.64-1.64-.19-.43s-.11-.27-.18-.43c-.68-1.62-1.34-3.25-1.98-4.88-4.88-12.29-9.04-24.87-14.09-37.1-4.82-11.67-10.31-23.12-18.76-32.65-7.19-8.12-16.77-14.11-27.33-16.71-17.18-4.24-34.72.25-50.41,7.5-11.48,5.31-22.14,12.31-32.21,19.93-14.51,10.98-28,23.21-40.82,36.11-7.69,7.74-15.14,15.72-22.42,23.85-2.62,2.92-3.1,7.76,0,10.61,2.86,2.62,7.81,3.12,10.61,0,14.08-15.71,28.78-30.93,44.66-44.84,3.22-2.82,6.49-5.59,9.82-8.28,1.49-1.21,3.01-2.38,4.51-3.58.89-.71-1.44,1.1-.04.03.42-.32.84-.64,1.26-.96.82-.62,1.65-1.24,2.48-1.86,5.52-4.07,11.21-7.92,17.11-11.41,4.88-2.88,9.9-5.52,15.1-7.78,2-.87-1.44.57.32-.13.53-.21,1.06-.43,1.6-.64,1.14-.44,2.28-.87,3.43-1.27,2.16-.75,4.34-1.43,6.56-2.01,2.03-.53,4.08-.98,6.15-1.34.49-.08.98-.16,1.48-.24,1.91-.3-1.98.22-.28.04.94-.1,1.88-.21,2.83-.28,3.48-.26,6.93-.16,10.39.19,1.55.16-2.18-.33-.69-.09.39.06.79.12,1.18.19.8.14,1.6.29,2.4.47,1.46.33,2.91.72,4.33,1.19.63.2,1.25.42,1.86.65.37.14.72.29,1.09.42,1.14.42-.72-.26-.72-.31.02.26,3.66,1.78,4.08,2.02,1.08.61,2.14,1.26,3.17,1.95.56.38,1.11.78,1.66,1.18.86.61-.03.5-.49-.39.17.32.86.69,1.15.93,2.04,1.71,3.94,3.59,5.7,5.59.46.52.9,1.04,1.34,1.58.2.24.4.49.6.74.88,1.08-.45-.34-.35-.47-.08.12,2.4,3.34,2.58,3.61,3.28,4.9,6.01,10.15,8.46,15.51.65,1.43,1.28,2.87,1.9,4.31s-.56-1.35-.16-.39c.14.34.28.67.42,1.01.34.81.67,1.63.99,2.44,1.23,3.05,2.4,6.13,3.55,9.21,2.4,6.4,4.7,12.84,7.13,19.23,5.18,13.63,10.85,27.22,18.64,39.59,8.26,13.11,18.8,24.56,31.75,33.16,13.7,9.1,29.78,14.55,45.98,16.94,32.25,4.77,66.11-.11,96.43-11.86,12.68-4.92,24.95-10.93,35.69-19.35,7.24-5.68,14.65-13.54,15.11-23.25.61-12.64-11.58-22.47-21.16-28.49-12.14-7.63-26.34-12.86-40.64-14.24-10.93-1.06-23.94,1.44-29.17,12.3-4.83,10.02-3.03,21.98-.57,32.38,3.66,15.45,10.01,30.3,16.59,44.7,8.54,18.68,18.21,36.83,28.26,54.73,5.7,10.14,11.55,20.2,17.49,30.2,2.01,3.37,6.84,4.9,10.26,2.69s4.84-6.65,2.69-10.26h0Z"/>
      <path class="cls-2" d="M-226.58,139.86c21.69.94,43.38,2.25,64.99,4.4,4.77.47,9.54.99,14.3,1.56,2.32.28,4.65.57,6.97.88.26.03.53.07.79.1,0,0-1.55-.21-.69-.09.52.07,1.04.14,1.56.21,1.2.17,2.39.34,3.59.51,8.02,1.17,16.02,2.53,23.95,4.23,6.7,1.44,13.36,3.1,19.86,5.24,1.43.47,2.85.96,4.26,1.49.62.23,1.24.47,1.86.71.35.14.7.28,1.05.42.15.06.3.12.44.18.92.36-.88-.37-.92-.39,2.27,1.03,4.53,2.04,6.7,3.26.99.56,1.96,1.14,2.9,1.77.41.27.82.55,1.22.84.19.14.38.29.58.43.61.4-1.31-.93-1.05-.81.15.07.33.25.46.36.71.6,1.41,1.2,2.07,1.85.32.32.64.65.94.99.14.15.27.31.4.46.88,1-.55-.82-.61-.82.31-.01,1.22,1.81,1.36,2.08.18.32.32.67.5.99.45.8-.74-1.99-.47-1.12.06.2.15.39.22.59.12.37.23.74.32,1.11.1.42.32,1.9.11.29s-.02.26-.01.72c0,.54-.1,1.1-.08,1.64.01.45.38-2.19.13-.97-.05.26-.09.52-.15.78-.13.62-.29,1.23-.48,1.83-.17.54-.37,1.06-.56,1.59-.45,1.21.53-1.15.31-.72-.16.31-.29.63-.44.94-.59,1.21-1.26,2.39-1.99,3.53-.35.55-.72,1.1-1.1,1.64-.23.32-.46.64-.69.95-.1.14-.21.27-.31.41-.58.8.47-.63.54-.7-2.13,2.24-4.01,4.67-6.25,6.82-1.2,1.15-2.44,2.26-3.71,3.34-.6.51-1.2,1-1.81,1.49-.31.25-.62.48-.92.73-.62.51.83-.63.74-.57-.27.19-.52.4-.79.6-5.31,4-11.03,7.49-17.06,10.29-.73.34-1.48.65-2.21.98-.14.06,1.69-.69.95-.4-.17.06-.34.14-.51.21-.39.16-.78.31-1.18.46-1.41.54-2.84,1.03-4.29,1.46-1.36.4-2.73.75-4.13,1.03-.61.12-1.23.2-1.83.32-.5.1,2.13-.24.8-.11-.34.03-.68.07-1.02.1-1.2.1-2.4.12-3.6.04-.26-.02-.52-.05-.78-.07-1.09-.05,2.04.37.98.13-.56-.12-1.13-.21-1.68-.36-.17-.05-1.25-.52-1.34-.45.15-.11,2.03.99.95.39-.23-.13-.47-.24-.7-.37-.35-.2-.67-.47-1.02-.67-.67-.38,1.59,1.38,1.06.81-.12-.12-.27-.22-.39-.34-.48-.47-.92-.96-1.37-1.45-.51-.56,1.36,1.93.49.61-.22-.33-.44-.65-.64-.99-.38-.63-.73-1.29-1.04-1.96-.08-.17-.15-.34-.23-.51-.4-.79.83,2.11.42,1.01-.15-.4-.31-.79-.45-1.19-.61-1.71-1.06-3.47-1.43-5.25-.2-1-.36-2.01-.52-3.01-.19-1.23.18,1.53.14,1.02-.02-.29-.07-.58-.1-.87-.06-.55-.12-1.1-.17-1.65-.43-4.87-.39-9.78-.08-14.66.17-2.73.44-5.45.78-8.16.04-.33.09-.66.13-.99.1-.81-.19,1.37-.16,1.16.03-.22.06-.45.09-.67.11-.73.21-1.46.32-2.19.23-1.49.48-2.98.75-4.46,1.13-6.17,2.58-12.27,4.31-18.3,1.87-6.49,4.05-12.89,6.55-19.17.32-.81.65-1.62.98-2.43.15-.37.31-.75.47-1.12.31-.75-.41.96-.36.86.11-.25.21-.5.32-.75.7-1.62,1.41-3.23,2.15-4.83,1.46-3.16,3-6.29,4.63-9.37,3.31-6.26,6.96-12.33,11-18.14,1.02-1.46,2.06-2.91,3.12-4.34.25-.33.49-.66.74-.98.12-.16.25-.33.37-.49.48-.65-.61.78-.55.71.56-.69,1.1-1.4,1.65-2.09,2.22-2.75,4.54-5.43,6.96-8.01s4.82-4.92,7.37-7.23c1.3-1.17,2.62-2.31,3.97-3.41.62-.51,1.25-1.01,1.88-1.51,1.02-.81-1.29.97-.25.19.43-.32.85-.64,1.28-.96,2.73-2.02,5.57-3.91,8.49-5.64,1.6-.95,3.22-1.85,4.87-2.71.97-.5,1.95-.99,2.94-1.45.49-.23.98-.46,1.47-.68.24-.11.49-.22.74-.33.22-.1,1.65-.72.58-.26-.99.43.57-.22.82-.33.49-.19.98-.38,1.47-.57,1.06-.4,2.12-.78,3.2-1.14,2.11-.71,4.24-1.34,6.4-1.89s4.25-1.01,6.41-1.41c.98-.18,1.97-.35,2.96-.5.49-.07.99-.13,1.48-.21.03,0-1.62.2-.76.11.33-.04.66-.08.99-.12,8.38-.96,16.85-.89,25.24-.14,2.11.19,4.21.42,6.31.68.24.03.48.06.73.09.86.11-.83-.11-.79-.11.48.08.97.13,1.45.2,1.12.16,2.25.33,3.37.51,4.07.65,8.12,1.42,12.16,2.25,7.97,1.64,15.89,3.55,23.82,5.35,14.62,3.33,29.85,6.79,44.94,5.85,13.41-.83,25.96-5.43,35.91-14.63,5.29-4.89,9.62-10.98,12.76-17.46,4.18-8.63,6.76-17.86,8.13-27.33,1.91-13.16,2.09-26.4,1.18-39.65-1.25-18.15-4.21-36.21-8-53.99-2.26-10.63-4.85-21.2-7.65-31.7-1.01-3.79-5.39-6.48-9.23-5.24s-6.32,5.16-5.24,9.23c5.41,20.27,10.06,40.79,13.01,61.57.07.5.14,1.01.21,1.51.24,1.76-.14-1.12.03.25.14,1.06.27,2.12.4,3.18.25,2.06.48,4.11.69,6.17.4,3.94.72,7.88.95,11.83.39,6.8.51,13.61.22,20.42-.13,2.97-.33,5.94-.63,8.9-.07.7-.15,1.4-.23,2.1-.04.32-.08.63-.11.95-.02.16-.04.31-.06.47-.12,1.01.14-1.04.14-1.06-.21,1.36-.39,2.72-.62,4.08-.8,4.67-1.89,9.31-3.38,13.81-.33,1.01-.69,2.01-1.06,3.01-.18.48-.37.96-.56,1.44-.09.22-.18.43-.27.65-.36.91.87-2,.35-.83-.8,1.79-1.62,3.56-2.56,5.28-.85,1.56-1.77,3.09-2.77,4.57-.47.7-.97,1.39-1.47,2.07-1,1.37,1.25-1.56.3-.39-.26.32-.51.63-.77.95-1.97,2.37-4.17,4.56-6.55,6.51-.16.13-.33.26-.48.39-.61.52.81-.61.73-.56-.16.11-.32.24-.48.36-.74.54-1.48,1.07-2.25,1.57-1.39.91-2.83,1.73-4.31,2.48-.73.36-1.5.65-2.21,1.04-.12.06,1.67-.68.93-.39-.17.07-.35.14-.52.21-.4.16-.81.32-1.22.47-1.52.55-3.07,1.03-4.63,1.43s-3.17.73-4.78.98c-.19.03-.37.06-.56.09-1.19.19.84-.11.87-.11-.38.03-.76.09-1.13.14-.83.09-1.65.16-2.48.22-3.48.25-6.98.22-10.46.01-1.78-.11-3.55-.26-5.32-.45-.83-.09-1.66-.19-2.49-.29-1.32-.16,1.77.25.11.01-.49-.07-.98-.14-1.48-.21-3.75-.56-7.49-1.26-11.2-2.02-16.14-3.29-32.04-7.71-48.34-10.2-18.02-2.75-36.38-3.4-54.16,1.26-16.29,4.27-31,12.86-43.52,24.01-10.99,9.79-20.22,21.62-27.88,34.16-7.64,12.52-13.77,26-18.56,39.86-4.38,12.67-7.45,25.7-9.17,39-1.35,10.43-1.7,21.08.26,31.46,1.46,7.74,5.11,16.63,12.74,20.12,12.23,5.6,26.85-.18,37.88-6.04,12.34-6.56,24.21-15.86,32.01-27.58,3.3-4.95,5.85-10.95,5.76-17-.08-5.37-2.26-10.01-5.61-14.09-6.68-8.13-17.9-12.4-27.56-15.6-14.49-4.79-29.68-7.47-44.75-9.64-20.42-2.95-40.98-4.84-61.56-6.21-11.05-.74-22.11-1.32-33.17-1.79-3.92-.17-7.68,3.57-7.5,7.5.19,4.21,3.3,7.32,7.5,7.5h0Z"/>
    </g>
  </g>
</svg>