<?xml version="1.0" encoding="UTF-8"?>
<svg id="Camada_2" data-name="Camada 2" xmlns="http://www.w3.org/2000/svg" viewBox="0 0 259.32 150.77">
  <defs>
    <style>
      .cls-1 {
        fill: #3D4DB7;
        stroke-width: 0px;
      }
    </style>
  </defs>
  <g id="Camada_1-2" data-name="Camada 1">
    <g>
      <path class="cls-1" d="M.47,82.01c-2.71-13.04,6.64-25.03,21.83-28.19,8.64-1.8,15.81.4,21.84,3.5l-3.04,8.62c-6.03-4.01-11.36-4.89-17.04-3.71-10.03,2.09-15.47,9.63-13.78,17.75,1.7,8.17,9.7,12.92,19.73,10.83,5.68-1.18,10.21-4.12,14.15-10.2l6.23,6.69c-4.29,5.25-9.99,10.12-18.63,11.92-15.19,3.16-28.55-4.1-31.28-17.2Z"/>
      <path class="cls-1" d="M46.9,52.99h-2.37v-8.6h2.37c24.09,0,3.56,36.91,17.92,36.91,3.15,0,5.82-.77,8.13-2.31-5.04-6.77-8.66-13.41-8.66-21.07,0-9.32,7.24-14.01,13.12-14.01s12.94,4.15,12.94,13.65c0,8.55-2.31,16.26-6.35,22.02,2.31,2.79,5.04,5.88,8.25,9.38h-11.28c-.95-1.13-1.9-2.31-2.79-3.38-3.8,2.73-8.31,4.33-13.35,4.33-25.52,0-8.9-36.91-17.92-36.91ZM73.84,57.97c0,4.69,1.42,9.02,4.57,14,1.54-3.68,2.37-8.37,2.37-14.12,0-3.03-1.48-5.34-3.38-5.34-1.78,0-3.56,2.31-3.56,5.46Z"/>
      <path class="cls-1" d="M98.01,79.02c-1.24-3.35-1.44-7.51-.03-12.13l4.38-13.86,8.91-2.28,27.65,33.39-8.56,2.19-7.74-9.35c.68,3.93-1.64,9-8.72,10.81-3.95,1.01-8.08.07-11.25-2.41-.98,2.3-1.64,5.17-1.92,8.53l-8.2,2.1c.8-6.79,2.67-12.55,5.47-17ZM104.82,72.09c1.49-.92,3.08-1.65,4.81-2.09,2.84-.73,5.3-.6,7.37.11l-8.73-10.5-2.5,7.93c-.55,1.65-.86,3.19-.94,4.56ZM107.27,79.35c1.38,1.16,3.15,1.57,4.77,1.15,2.08-.53,2.63-1.54,2.49-2.09-.23-.91-1.2-1.53-3.02-1.06-1.57.4-2.97,1.03-4.24,2Z"/>
      <path class="cls-1" d="M125.43,48.34c0-6.98,5.89-11.22,13.96-11.22h14.57c9.76,0,17.68,7.92,17.68,17.68s-7.92,17.68-17.68,17.68h-21.88v-15.18c-3.87-1.51-6.65-4.34-6.65-8.96ZM139.81,51.78c7.97,0,11.22-5.38,11.32-5.61v.05l5.99,3.3c-.24.38-5.19,9.05-17.31,9.05h-.42v7.07h13.82c5.99,0,10.85-4.86,10.85-10.85s-4.86-10.85-10.85-10.85h-13.82c-3.07,0-6.37.99-6.37,3.91,0,3.21,3.11,3.91,6.79,3.91Z"/>
      <path class="cls-1" d="M201.49,53.67c10.01,3.92,14.2,11.51,10.6,20.7-1.29,3.28-3.61,5.64-6.43,7.33,1.06,5.19,1.33,11.19,1.3,17.82l-8.49-3.32c-.01-4.73-.17-8.64-.64-11.91-4.55.61-9.38,0-13.53-1.63-3.34-1.31-5.89-3.12-7.59-5.19l-3.46,8.84-7.83-3.07,14.84-37.9,21.22,8.31ZM182.58,62.53c2.78-.25,5.9.27,9.03,1.5,5.31,2.08,8.79,5.25,11.08,9.35.48-.63.93-1.33,1.26-2.19,1.66-4.24.38-7.95-5.33-10.19l-13.39-5.24-2.65,6.77ZM182.7,71.44c-.44,1.11.61,2.45,4.45,3.96,2.38.93,5.37,1.46,8.18,1.28-1.44-2.43-3.57-4.14-6.6-5.32-3.59-1.41-5.54-1.18-6.04.08Z"/>
      <path class="cls-1" d="M218.76,82.04c-.93-3.47-.76-7.66,1.08-12.17l5.66-13.49,9.14-1.47,24.68,36-8.78,1.42-6.9-10.08c.33,4-2.46,8.87-9.74,10.05-4.05.65-8.1-.67-11.06-3.44-1.19,2.22-2.12,5.03-2.7,8.38l-8.42,1.36c1.42-6.73,3.82-12.34,7.04-16.54ZM226.21,75.72c1.58-.79,3.24-1.38,5.01-1.66,2.91-.47,5.37-.12,7.38.78l-7.8-11.32-3.23,7.72c-.7,1.61-1.15,3.12-1.36,4.48ZM228.01,83.22c1.27,1.29,3.02,1.86,4.68,1.59,2.13-.34,2.78-1.3,2.68-1.87-.15-.93-1.06-1.64-2.93-1.34-1.61.26-3.08.76-4.43,1.62Z"/>
      <path class="cls-1" d="M34.62,117.29c-2-7.69,3.28-14.05,12.17-16.36l16.05-4.17c10.76-2.79,21.75,3.67,24.54,14.42,2.79,10.76-3.67,21.75-14.42,24.54l-24.11,6.26-4.34-16.73c-4.69-.56-8.57-2.88-9.89-7.97ZM51.46,116.97c8.78-2.28,10.83-9.13,10.86-9.42v.05s7.56,1.92,7.56,1.92c-.15.48-3.12,11.46-16.48,14.93l-.47.12,2.02,7.79,15.22-3.95c6.6-1.71,10.56-8.45,8.85-15.05-1.71-6.6-8.45-10.56-15.05-8.85l-15.22,3.95c-3.38.88-6.73,2.91-5.89,6.13.92,3.53,4.55,3.42,8.6,2.37Z"/>
      <path class="cls-1" d="M107.15,92.75l42.89,6.41-1.21,8.09-19.68-2.94-5.34,16.5c-1.3,4.06-1.8,9.73,3.6,10.54,4.72.71,7.24-2.71,7.75-6.08l8.71,1.3c-1.1,7.36-8.56,14.24-17.67,12.88-11.58-1.73-14.16-10.62-10.94-20.66l5.06-15.8-14.39-2.15,1.21-8.09Z"/>
      <path class="cls-1" d="M171.01,91.62c14.22-3.4,27.16,3.53,30.24,16.43,3.07,12.85-5.34,24.88-19.56,28.27-14.27,3.41-27.16-3.53-30.23-16.37-3.07-12.85,5.27-24.92,19.54-28.33ZM160.66,117.75c1.91,7.99,9.64,12.54,19.06,10.29,9.42-2.25,14.25-9.8,12.34-17.8l-.16-.69c-2.77,3.32-7.19,6.79-14.04,8.43-6.68,1.6-13.67,1.15-17.6-2.92.03.9.18,1.77.4,2.68ZM166.47,106.95c.93,3.88,4.96,3.82,9.41,2.76,6.22-1.49,9.41-5.09,10.93-7.56-3.52-2.6-8.39-3.55-13.82-2.25-3.71.89-7.36,3.57-6.52,7.05Z"/>
      <path class="cls-1" d="M204.97,130.6c3.18,5.71,10.71,9.42,15.67,10.64,7.53,1.85,12.15,1,12.95-2.26,1.98-8.06-33-6.68-28.77-23.92,1.9-7.74,10.4-11.26,22.84-8.21,7.58,1.86,15,7.13,18.6,12.09l-5.79,6.05c-3.18-5.71-9.69-9.17-14.71-10.4-6.83-1.68-11.55-.68-12.24,2.15-1.72,6.99,32.95,6.89,28.9,23.39-2.11,8.59-11.77,11.77-23.68,8.85-7.53-1.85-15.96-7.37-19.56-12.33l5.79-6.05Z"/>
      <path class="cls-1" d="M88.41,6.43l-6.96,28.06,21.99,5.45-1.67,6.73-29.18-7.24,8.63-34.79,7.19,1.78Z"/>
      <path class="cls-1" d="M107.57,5.29c10.26-1.15,18.73,4.82,19.78,14.13,1.04,9.27-5.89,16.97-16.15,18.13-10.3,1.16-18.73-4.82-19.77-14.09-1.04-9.27,5.85-17.01,16.14-18.17ZM98.06,22.71c.65,5.77,5.67,9.62,12.47,8.86,6.8-.76,10.84-5.64,10.19-11.41l-.06-.49c-2.23,2.09-5.63,4.14-10.57,4.69-4.82.54-9.68-.37-12.08-3.56-.05.63-.03,1.25.05,1.91ZM103.06,15.64c.31,2.8,3.14,3.11,6.36,2.75,4.49-.5,7.03-2.75,8.31-4.36-2.24-2.13-5.58-3.21-9.49-2.77-2.68.3-5.46,1.87-5.18,4.38Z"/>
      <path class="cls-1" d="M133.71,24.81c4.19,2.59,10.51,2.28,14.23,1.26,5.64-1.55,8.37-3.8,7.7-6.24-1.66-6.04-24.19,7.71-27.73-5.2-1.59-5.8,2.72-11.23,12.04-13.79,5.68-1.56,12.5-.81,16.69,1.14l-1.59,6.11c-4.19-2.59-9.75-2.48-13.51-1.45-5.12,1.4-7.86,3.79-7.28,5.91,1.44,5.24,24.24-7.55,27.62,4.8,1.77,6.44-3.44,12.08-12.35,14.52-5.64,1.55-13.22,1-17.41-.94l1.59-6.11Z"/>
      <g>
        <path class="cls-1" d="M92.34,110.91l9-.57,2.52,39.86-9,.57-2.52-39.86Z"/>
        <rect class="cls-1" x="91.75" y="98.88" width="9.14" height="9.14" transform="translate(-6.34 6.29) rotate(-3.62)"/>
      </g>
    </g>
  </g>
</svg>